<svg xmlns="http://www.w3.org/2000/svg" fill="#f00" viewBox="0 0 623.19 114.88"><title>Login</title><g id="Layer_2" data-name="Layer 2"><g id="Layer_1-2" data-name="Layer 1"><path d="M83.68,93.6H32.48L24,113.44H0l45.92-112H70.08L40.48,73.6h35L59.68,35.2,77.76,19.68,116,113.44H92Z" /><path d="M214.24,87.68a58,58,0,0,1-9,11,59.82,59.82,0,0,1-11.44,8.56,55.25,55.25,0,0,1-13.44,5.52,57.54,57.54,0,0,1-14.88,1.92,56.16,56.16,0,0,1-22.32-4.48,56.87,56.87,0,0,1-30.48-30.48,56.16,56.16,0,0,1-4.48-22.32,56.18,56.18,0,0,1,4.48-22.32A56.87,56.87,0,0,1,143.12,4.64,56.19,56.19,0,0,1,165.44.16a57.54,57.54,0,0,1,14.88,1.92A55.25,55.25,0,0,1,193.76,7.6a59.94,59.94,0,0,1,11.44,8.56,58.12,58.12,0,0,1,9,11l-18.72,12A36.41,36.41,0,0,0,183.2,25.36a31.42,31.42,0,0,0-17.76-5.2,30.6,30.6,0,0,0-13.28,3,35.12,35.12,0,0,0-10.88,8A38.92,38.92,0,0,0,131.2,57.44a38.92,38.92,0,0,0,10.08,26.32,35.07,35.07,0,0,0,10.88,8,30.58,30.58,0,0,0,13.28,3,31.4,31.4,0,0,0,17.76-5.2,36.39,36.39,0,0,0,12.32-13.84Z" /><path d="M270.56,0a53.66,53.66,0,0,1,22.08,4.56,55.66,55.66,0,0,1,29.52,30.56,59,59,0,0,1,4.24,22.32,60.37,60.37,0,0,1-3,19.2,56.52,56.52,0,0,1-8.64,16.48,55.43,55.43,0,0,1-13.36,12.56,52.47,52.47,0,0,1-17,7.44l-11.2-19a28.69,28.69,0,0,0,12.24-3.6,33.53,33.53,0,0,0,9.52-8,36.65,36.65,0,0,0,6.24-11.36,41.59,41.59,0,0,0,2.24-13.68,40.83,40.83,0,0,0-2.48-14.24,37.23,37.23,0,0,0-6.8-11.68,31.78,31.78,0,0,0-10.32-7.84,31.69,31.69,0,0,0-26.4,0A32.66,32.66,0,0,0,247,31.52a36.34,36.34,0,0,0-6.88,11.68,42.12,42.12,0,0,0,0,28.48A36.31,36.31,0,0,0,247,83.36a32.62,32.62,0,0,0,10.4,7.84,30.1,30.1,0,0,0,13.2,2.88v20.8a54.7,54.7,0,0,1-39.84-16.8A57,57,0,0,1,219,79.76a58.92,58.92,0,0,1-4.24-22.32A58.93,58.93,0,0,1,219,35.12,55.66,55.66,0,0,1,248.48,4.56,53.65,53.65,0,0,1,270.56,0Z"/><path d="M403.36,76.64a39.84,39.84,0,0,1-7.12,2.56,43.59,43.59,0,0,1-8,1q-4.72.24-11.68.16t-18-.08v33.12H336V1.44h50.72A37.65,37.65,0,0,1,402,4.56,40.49,40.49,0,0,1,414.48,13,39.91,39.91,0,0,1,423,25.68a38.79,38.79,0,0,1,3.12,15.44,37.66,37.66,0,0,1-6.32,21.44A39.1,39.1,0,0,1,403.36,76.64Zm-44.8-18.72h28.16a16.41,16.41,0,0,0,12.16-5q5-5,5-13.52a17.64,17.64,0,0,0-1.36-6.8,20.15,20.15,0,0,0-3.68-5.84,17.86,17.86,0,0,0-5.44-4.08,15,15,0,0,0-6.64-1.52H358.56v36.8Zm70.24,55.52H400.32L383.2,92.32l18.72-12.16Z"/><path d="M511,1.44l.16,18.72H458.56l-.16,74.72H511v18.56H436V1.44ZM497.76,68.8h-25L462.4,48h35.36Z"/><path d="M518.23,113.44l30.4-43.84,20.16,10.24-23.36,33.6Zm65.92-56.16,39,56.16H595.83L570.71,77l-13.6-19.68L518.55,1.44h27.2l25,40.8,24.8-40.8h27.36Z" /></g></g></svg>